<?xml version="1.0" standalone="no"?><!DOCTYPE svg PUBLIC "-//W3C//DTD SVG 1.1//EN" "http://www.w3.org/Graphics/SVG/1.1/DTD/svg11.dtd"><svg t="1507773793727" class="icon" style="" viewBox="0 0 1024 1024" version="1.1" xmlns="http://www.w3.org/2000/svg" p-id="2465" xmlns:xlink="http://www.w3.org/1999/xlink" width="128" height="128"><defs><style type="text/css"></style></defs><path d="M 909.88 162.863 c -31.1208 -31.1341 -72.5391 -48.2816 -116.627 -48.2816 c -44.0359 0 -85.4246 17.1475 -116.537 48.2806 L 471.771 367.818 l 0.119727 0.148379 L 244.036 595.851 c -18.3243 18.3243 -28.4162 42.6586 -28.4162 68.5175 c 0 25.8416 10.0878 50.187 28.4223 68.5687 c 18.3192 18.2906 42.6565 28.364 68.5267 28.364 c 25.9234 0 50.2607 -10.0785 68.5196 -28.3712 l 386.361 -386.374 l -40.9619 -40.9578 L 340.163 691.968 c -6.95337 6.94313 -17.0033 10.9258 -27.572 10.9258 c -10.5687 0 -20.6196 -3.98271 -27.5617 -10.9115 c -7.39748 -7.41181 -11.4723 -17.2181 -11.4723 -27.6139 c 0 -10.3999 4.06764 -20.1827 11.4651 -27.5587 l 435.454 -435.472 l -0.115634 -0.161682 c 19.845 -18.5126 45.5832 -28.6628 72.8942 -28.6628 c 28.5431 0 55.4182 11.1152 75.6612 31.2774 c 20.1663 20.1857 31.2753 47.0578 31.2753 75.6694 c 0 28.6065 -11.1049 55.454 -31.2753 75.6039 L 671.824 552.232 l -3.37179 3.40045 L 422.421 801.63 c -33.0385 33.0364 -76.9567 51.2298 -123.666 51.2298 c -46.7794 0 -90.713 -18.1913 -123.716 -51.2328 c -33.0262 -33.0026 -51.2144 -76.9219 -51.2144 -123.668 c 0 -46.7794 18.1882 -90.7181 51.2175 -123.724 l 400.04 -400.036 l -40.9507 -40.9977 L 134.07 513.292 c -43.9745 43.9756 -68.1931 102.462 -68.1931 164.686 c 0 62.1863 24.2186 120.651 68.1931 164.626 s 102.431 68.1931 164.599 68.1931 l 0.086981 0 c 62.1679 0 120.622 -24.2186 164.596 -68.1921 L 811.322 494.694 l 3.59794 -3.6839 l 94.9597 -94.9567 c 31.1106 -31.1106 48.2438 -72.5227 48.2438 -116.606 C 958.122 235.363 940.988 193.958 909.88 162.863 Z" p-id="2466" fill="#bfbfbf"></path></svg>